<svg xmlns="http://www.w3.org/2000/svg" viewBox="0 0 737 247"><path d="M557.87 88.27c.67-1.4 3.68-7.06 4.75-7.58q.41-.19.86-.19h32.08q.57 0 .72.55l2.77 9.95q.11.41-.32.39l-40.51-2.52q-.62-.04-.35-.6Z"/><path d="M634.2 94.13a.37.37 0 0 0-.01-.74l-19.39-.91a.32.32 0 0 1-.26-.48l6.34-11.03q.26-.47.8-.47 21.8-.02 43.57.03c13.75.04 28.21 4.28 23.2 21.54q-4.46 15.38-21.51 18.98a.44.44 0 0 0-.21.75c6.19 5.93 9.97 15.65 6.4 23.98-5.62 13.08-24.5 19.68-37.55 19.7q-27.54.05-55.09.01-.64 0-.82-.61l-3.04-10.37a.55.55 0 0 1 .5-.71l24.45-1.4q.76-.05.26-.62c-.5-.57-22.78-1.6-25.39-1.77a1.54 1.54 0 0 1-1.37-1.12l-3.2-11.43q-.26-.94-.72-.08l-6.05 11.43q-.26.5-.83.46l-38.18-2.63a.39.39 0 0 1-.31-.58l4.59-8.15q.29-.51.87-.55 31.15-2.11 62.24-4.12c7.09-.45 13.33-.15 18.83-1.28q1.57-.32-.03-.42l-75.11-4.39q-.76-.04-.4-.71l3.7-6.8a1.31 1.3 12 0 1 1.06-.68l81.18-5.19q1.07-.07.02-.29-2.33-.47-4.67-.61-35.52-2.07-71.09-4.45a.27.27 0 0 1-.21-.41l4.83-8.27q.3-.52.9-.55l47.05-2.95a.88.88 0 0 1 .89.62l3.33 11.3a.43.42 52.9 0 0 .77.11l7.71-12.14q.3-.47.85-.51l21.1-1.49Zm13.7 3.3-7.62 14.59a.31.31 0 0 0 .27.45c6.77.23 16.09 1.39 19.71-5.88 1.24-2.48 1.05-5.47-.81-7.5-2.48-2.69-8.04-2.21-11.46-1.72a.13.13 0 0 0-.09.06Zm-15.79 32.79-7.3 14.05q-.5.95.58.97c4.72.05 11.34.78 15.12-1.42 4.83-2.8 7.59-10.37 1.21-13.59-2.28-1.15-5.76-.74-8.43-.73q-.81.01-1.18.72Z"/><rect width="9.26" height="55.5" x="301.25" y="109.25" rx=".59"/><path d="m213.59 160.91.21 3.17q.04.67-.63.67h-7.92q-.75 0-.75-.75v-53.69a.63.63 0 0 1 .63-.63l8.9.1q.5 0 .5.5l-.09 17.03a.3.3 0 0 0 .52.21c4.18-4.6 9.61-6.12 15.82-5.16 19.71 3.07 24.51 31.85 6.79 41.33-7.47 3.99-16.91 2.92-23.24-3.13q-.81-.77-.74.35Zm25.32-16.76a12.59 12.59 0 0 0-12.59-12.59 12.59 12.59 0 0 0-12.59 12.59 12.59 12.59 0 0 0 12.59 12.59 12.59 12.59 0 0 0 12.59-12.59ZM411.2 129.45c11-12.24 30.7-9.29 36.72 6.42q.24.63-.43.63h-9.72q-.52 0-.86-.4c-6-7.06-15.73-6.58-20.16 1.39-7.44 13.37 11.15 26.64 20.71 13.67q.3-.41.8-.41h9.22q.65 0 .43.61c-5.16 14.47-21.9 18.79-33.84 10.34-10.35-7.33-11.45-22.69-2.87-32.25Z"/><path d="M286.72 128.33a.41.41 0 0 0 .71-.31l-.23-3.59q-.05-.68.63-.68h7.89a.53.53 0 0 1 .53.53v39.81q0 .65-.65.65l-7.77.01q-.68 0-.64-.68l.25-3.38a.42.42 0 0 0-.7-.35q-7.94 7.04-18.5 4.91c-13.26-2.67-18.78-16.99-14.49-29.24 4.86-13.87 22.36-18.91 32.97-7.68Zm.65 15.7a12.55 12.55 0 0 0-12.55-12.55 12.55 12.55 0 0 0-12.55 12.55 12.55 12.55 0 0 0 12.55 12.55 12.55 12.55 0 0 0 12.55-12.55ZM350.21 128.02l-.26-3.56q-.05-.71.66-.71h7.76q.63 0 .63.63v39.71q0 .66-.66.66h-7.76q-.61 0-.58-.61l.17-3.22a.44.44 0 0 0-.73-.35c-17.49 15.05-40.59-3.61-32.71-24.78 5.14-13.78 22.18-18.57 32.87-7.5a.35.35 0 0 0 .61-.27Zm0 16a12.54 12.54 0 0 0-12.54-12.54 12.54 12.54 0 0 0-12.54 12.54 12.54 12.54 0 0 0 12.54 12.54 12.54 12.54 0 0 0 12.54-12.54ZM57.01 126.91q7.24-6.41 16.18-3.57c7.6 2.42 10.28 8.37 10.74 16.3q.71 12.25.18 24.51-.03.6-.63.6h-8.46q-.51 0-.51-.51c-.03-8.13 1.09-18.65-.89-26.45-1.94-7.64-12.31-8.11-15.37-1.44q-.97 2.12-.98 7.05-.03 10.38-.02 20.74 0 .6-.6.6l-8.52.01q-.63 0-.63-.62v-39.88q0-.5.5-.5h7.95q.72 0 .6.71l-.34 2.01q-.23 1.36.8.44ZM373.07 127.16c11.09-9.59 27.03-3.32 27.33 11.53q.25 12.78.04 25.57-.01.49-.5.49h-8.64q-.52 0-.53-.52-.06-11.64-.04-23.21c.03-12.14-16.83-12.82-17.04.3q-.17 11.45-.23 22.92-.01.51-.52.51l-8.54-.01q-.65 0-.65-.65v-39.93a.4.4 0 0 1 .4-.4l8.01-.01q.68 0 .63.5l-.23 2.65q-.07.76.51.26Z"/><path d="M98.72 149.25c3.37 8.53 13.51 10.76 20.31 4.37q.39-.37.93-.37h9.06a.84.83 15.3 0 1 .72 1.26q-6.6 11.16-18.42 11.42c-27.29.61-31.62-37.12-5.57-42.72 15.92-3.41 27.07 9.81 25.42 24.88q-.04.41-.46.41H99.23a.55.55 0 0 0-.51.75Zm22.25-9.11q.81 0 .6-.78c-2.95-10.89-19.04-9.12-23.17.11a.41.4 12.4 0 0 .37.57l22.2.1ZM455.44 130.69c9.52-11.66 28.82-10.23 35.76 3.39q3.07 6.03 2.14 14.06-.04.36-.39.36h-31.26q-.69 0-.58.69.35 2.32 1.11 3.11 9.15 9.41 19.41 1.25.39-.3.87-.3l9.17.01a.47.47 0 0 1 .43.67c-3.22 6.88-8.73 10.65-16.34 11.71-19.78 2.73-33.26-19.12-20.32-34.95Zm5.72 7.37q-1.41 1.87.94 1.91l21.1.34a.58.58 0 0 0 .58-.69q-.39-1.92-1.74-3.41c-6.35-7.01-15.44-5.37-20.88 1.85ZM150.34 147.83l6.95-23.61a.31.31 0 0 1 .3-.22h7.18a.31.31 0 0 1 .29.23l6.73 23.66a.31.31 0 0 0 .59.01l7.38-23.68a.31.31 0 0 1 .3-.22h9.67a.31.31 0 0 1 .29.42l-14.95 40.13a.31.31 0 0 1-.3.2h-5.41a.31.31 0 0 1-.3-.22l-7.77-26.11a.31.31 0 0 0-.6.01l-7.37 26.09a.31.31 0 0 1-.29.23h-5.79a.31.31 0 0 1-.3-.2L132 124.42a.31.31 0 0 1 .29-.42h9.85a.31.31 0 0 1 .3.22l7.31 23.61a.31.31 0 0 0 .59 0ZM519.25 157.1l42.3-2.78a.31.31 0 0 1 .29.46l-5.65 10.31a.31.31 0 0 1-.27.16h-40.84a.31.31 0 0 1-.27-.46l4.19-7.53a.31.31 0 0 1 .25-.16Z"/></svg>